/* XPM */
static char *bumpMaterial32[] = {
/* columns rows colors chars-per-pixel */
"32 32 32 1 ",
"  c gray1",
". c gray3",
"X c #161616",
"o c gray11",
"O c #202020",
"+ c #282828",
"@ c #353535",
"# c gray23",
"$ c gray25",
"% c #494949",
"& c gray34",
"* c #5F5F5F",
"= c gray39",
"- c DimGray",
"; c #767676",
": c gray49",
"> c gray53",
", c #8D8D8D",
"< c #939393",
"1 c #9F9F9F",
"2 c gray64",
"3 c #AEAEAE",
"4 c #B4B4B4",
"5 c gray",
"6 c #C1C1C1",
"7 c gray81",
"8 c #D5D5D5",
"9 c #D8D8D8",
"0 c gray90",
"q c #E9E9E9",
"w c gray94",
"e c #FEFEFE",
/* pixels */
"66666666666666666566666666666666",
"6666666665662,::;;<4666666666666",
"6666666664>>13331-##*>5566666666",
"66666665,<48eq2::>&#:62>66666666",
"6666661::*>5573<,>,;o%43-4666666",
"66666<,122<;O%0e0989@ :,=$356666",
"6666<<3001>75@$97114> -w&$@56666",
"6655,3q8<>wee,$q9>;:1$&e3+@#6666",
"666>2462-qew>14<84:;=-<02&@O:666",
"6622;,85:<2:165#>w98< =,<;%OO666",
"55<1;3q4231655e2&q90, 7>O1*..:66",
"6321,92:417e25e7=4:3X+e5.%,  #66",
"6,4>26;7e5,72<5=,4-:#99>:X=. #35",
"6,1>84;0e5,6w8-:89;#78,;,%+o&*>6",
"6,<183;ee<>170<873$2:@3<:@ %3*=5",
"6,,<86&*$%57,1354<49> ;3X .:4O&6",
"6,,,79=o,7853114<3044>X*-#%## &6",
"6>,>;*670754<:483o:w13+O8-O  X=6",
"6;4$o*q&,09<&q0<5&*<&;@+2o  $%;6",
"6-6$X2w> 57X,81=< :1O..#+ OO=+16",
"61;;&32q-.X&q61-. q9>,&$-:>@%X55",
"66O::,11w<#:##.o&9e=-; ,6-O+O&66",
"66;$;@,,2631&@&<34;=;.o6@  #.266",
"666O2;o>1XO6q0e4$OO-+ 4-  +@$666",
"666,$5:.*o+:-:;&+&O  1<  .#.5666",
"6666*%31+ X;-=--$Xo.*;   +X>5666",
"66666%+;3:$$OXX..+;=O   XX-66666",
"666665&X+-*@&==->1;+X XO.;566666",
"6666666>@   #--*@   X+@#16666666",
"666666665;@X     .o+@%:566666666",
"66666666666<=$@O+$*;156666666666",
"66666666666666666655666666666666"
};
