/* XPM */
static char * image_name[]={
"32 32 178 2",
"  	c #C2C2C2",
". 	c #9E9E9E",
"X 	c #737373",
"o 	c #575757",
"O 	c #2F2F64",
"+ 	c #545454",
"@ 	c #707070",
"# 	c #9C9C9C",
"$ 	c #7A7A7A",
"% 	c #4A4A4A",
"& 	c #3B3B3B",
"* 	c #474747",
"= 	c #6B3939",
"- 	c #232375",
"; 	c #184AB8",
": 	c #184AB9",
"> 	c #3D3D3D",
", 	c #787878",
"< 	c #8F8F8F",
"1 	c #424242",
"2 	c #454545",
"3 	c #383838",
"4 	c #262626",
"5 	c #0A0A0A",
"6 	c #2468D9",
"7 	c #242424",
"8 	c #878787",
"9 	c #636363",
"0 	c #4D4D4D",
"q 	c #303030",
"w 	c #1A1A1A",
"e 	c #121212",
"r 	c #0F0F0F",
"t 	c #030303",
"y 	c #276EE4",
"u 	c #276FE3",
"i 	c #5C5C5C",
"p 	c #525252",
"a 	c #404040",
"s 	c #1C1C1C",
"d 	c #0D0D0D",
"f 	c #080808",
"g 	c #000000",
"h 	c #2A75ED",
"j 	c #2975ED",
"k 	c #184183",
"l 	c #171717",
"z 	c #050505",
"x 	c #184283",
"c 	c #2C7DFA",
"v 	c #2C7CF9",
"b 	c #184689",
"n 	c #363636",
"m 	c #4F4F4F",
"M 	c #7D7D7D",
"N 	c #141414",
"B 	c #184588",
"V 	c #1E90FF",
"C 	c #19498E",
"Z 	c #B5B5B5",
"A 	c #2B2B2B",
"S 	c #1A498D",
"D 	c #1B4C94",
"F 	c #333333",
"G 	c #ADADAD",
"H 	c #1A4C92",
"J 	c #1C4F98",
"K 	c #212121",
"L 	c #B0B0B0",
"P 	c #1B4E96",
"I 	c #1D529D",
"U 	c #A6A6A6",
"Y 	c #666666",
"T 	c #194A8D",
"R 	c #1B4F95",
"E 	c #2F4F4F",
"W 	c #1F1F1F",
"Q 	c #2262B5",
"! 	c #2365BA",
"~ 	c #B3B3B3",
"^ 	c #1F57A8",
"/ 	c #2C7CF4",
"( 	c #1F58A9",
") 	c #A8A8A8",
"_ 	c #858585",
"` 	c #1E4EC8",
"' 	c #2561FD",
"] 	c #2359E3",
"[ 	c #235AE4",
"{ 	c #235AE3",
"} 	c #245AE4",
"| 	c #245AE3",
" .	c #2357DE",
"..	c #2154DA",
"X.	c #2257DD",
"o.	c #2359E2",
"O.	c #2460FE",
"+.	c #1F4CBD",
"@.	c #757575",
"#.	c #999999",
"$.	c #384B66",
"%.	c #8C8C8C",
"&.	c #778899",
"*.	c #B8B8B8",
"=.	c #919191",
"-.	c #ABABAB",
";.	c #729FFF",
":.	c #5470AA",
">.	c #49D4F0",
",.	c #3879E2",
"<.	c #949494",
"1.	c #BDBDBD",
"2.	c #3E6BC4",
"3.	c #5773B8",
"4.	c #A3A3A3",
"5.	c #316FDF",
"6.	c #6A6A8D",
"7.	c #2C74FB",
"8.	c #336ADB",
"9.	c #2F69DD",
"0.	c #2A6AEB",
"q.	c #2C67E7",
"w.	c #2E7AFF",
"e.	c #2B69E7",
"r.	c #2C68E0",
"t.	c #2B68E4",
"y.	c #2C74FF",
"u.	c #336AD8",
"i.	c #307BFF",
"p.	c #3A64C0",
"a.	c #4955A5",
"s.	c #8A8A8A",
"d.	c #2B6FFF",
"f.	c #2C70FF",
"g.	c #2F7AFF",
"h.	c #317FFF",
"j.	c #2D73FF",
"k.	c #3563CB",
"l.	c #3965C5",
"z.	c #2A6DFF",
"x.	c #3062D4",
"c.	c #BFBFBF",
"v.	c #2958DC",
"b.	c #2760F3",
"n.	c #2B6BFF",
"m.	c #2761F6",
"M.	c #265CE8",
"N.	c #2A69FF",
"B.	c #969696",
"V.	c #2D70FF",
"C.	c #3076FF",
"Z.	c #3F61B6",
"A.	c #3078FF",
"S.	c #2D6FFF",
"D.	c #2B5BD4",
"F.	c #2F6FFF",
"G.	c #2A66FF",
"H.	c #2D55C9",
"J.	c #2E6FFF",
"K.	c #2559F3",
"L.	c #2C6AFF",
"P.	c #3E5FBD",
"I.	c #2F70FF",
"U.	c #3457BE",
"Y.	c #3175FF",
"T.	c #2D6CFF",
"R.	c #2353E2",
"E.	c #BABABA",
"W.	c #325FE8",
"Q.	c #3152BE",
"!.	c #3464E8",
"~.	c #3958BD",
"^.	c #2E5FEA",
"/.	c #335DD9",
"(.	c #2F56D5",
").	c #3363E8",
"_.	c #305CE8",
"`.	c #3353BC",
"                                                                ",
"                                                                ",
"                                                                ",
"                                                                ",
"                                                                ",
"                                                                ",
"                                                                ",
"                      . X o O O O O + @ #                       ",
"                  $ % & * = - ; : - = % > * ,                   ",
"              < 1 2 % 3 4 5 - 6 6 - 5 7 3 % * 1 8               ",
"            9 > 0 q w e r t - y u - t r e w q 0 1 i             ",
"          p % a s e r d f g - h j k g f d r e w a 0 %           ",
"        o 0 3 l e d f f z g x c v b g z f f d e l n m 0         ",
"      M 1 & N r 5 f z t t g B V V C g t t z f 5 r N & % @       ",
"    Z A * l e 5 f z t t g g S V V D g g t t z f 5 e l * F G     ",
"    p % 7 e d f z t t t g g H V V J g g t t t z f d e K 0 *     ",
"  L F a N r f z t t t t g g P V V I g g t t t t z f r N > 3 U   ",
"  Y = l z t g g g g g g g g T V V R g g g g g g g g t z N = i   ",
"  E o O O 7 7 K K K W W W W Q V V ! W K K K K K 7 4 O O O i E   ",
"~ ^ V V V V V V V V V V V V V / / V V V V V V V V V V V V V ( ) ",
"_ ` ' ] [ { { { } | { | } }  .....X.| | | | | o.o.o.o.o.o.O.+.@.",
"#.+ p O O p + $.O % + 0 O O O O O O O O O O O m + 0 O O $.+ p %.",
"G &.<     %.&.*.  ~ &.=.                      %.&.U     ~ &.&.  ",
"-.V V     V ;.&.  :.>.:.                      ,.;.&.    <.V V 1.",
"  2.V   U V V :.  3.V 4.  *.3.3.    :.3.G     3.V &.    #.V 5.1.",
"  6.V . &.7.8.9.*.0.q.      6.V :.:.V :.      3.w.e.r.r.t.y.u.1.",
"  # i.:.p.a.s.d.6.f.:.        6.g.h.6.        3.j.k.3.3.l.z.x.1.",
"  c.v.b.n.&.  m.M.N.s.        B.V.C.6.        Z.A.s.    . S.D.1.",
"    a.F.G.#   H.J.K.L       # L.P.a.I.s.      U.Y.6.    < T.R.E.",
"    &.W.Q.1.  6.!.a.      Z ~.^.*.  /.(.G     a.).6.    <._.`.1.",
"      E.c.      E.        E.G 1.      L Z     1.E.1.    c.E.E.  ",
"                                                                "
};
