/* XPM */
static char * image_name[]={
"32 32 72 2",
"  	c #C2C2C2",
". 	c #ADADAD",
"X 	c #828282",
"o 	c #636363",
"O 	c #4D4D4D",
"+ 	c #55562F",
"@ 	c #525252",
"# 	c #666666",
"$ 	c #878787",
"% 	c #B3B3B3",
"& 	c #858585",
"* 	c #141414",
"= 	c #242424",
"- 	c #262626",
"; 	c #4A4A4A",
": 	c #8F8F8F",
"> 	c #949494",
", 	c #363636",
"< 	c #292929",
"1 	c #080808",
"2 	c #0A0A0A",
"3 	c #3B3B3B",
"4 	c #A1A1A1",
"5 	c #1C1C1C",
"6 	c #1A1A1A",
"7 	c #171717",
"8 	c #000000",
"9 	c #0F0F0F",
"0 	c #737373",
"q 	c #0D0D0D",
"w 	c #595959",
"e 	c #B8860B",
"r 	c #1F1F1F",
"t 	c #030303",
"y 	c #212121",
"u 	c #5C5C5C",
"i 	c #707070",
"p 	c #A3A3A3",
"a 	c #121212",
"s 	c #B5B5B5",
"d 	c #969696",
"f 	c #404040",
"g 	c #050505",
"h 	c #BABABA",
"j 	c #CDCD1D",
"k 	c #8A8A8A",
"l 	c #616161",
"z 	c #696969",
"x 	c #757575",
"c 	c #6B8E23",
"v 	c #7A7A7A",
"b 	c #00562D",
"n 	c #6B3939",
"m 	c #8E2323",
"M 	c #919191",
"N 	c #A6A6A6",
"B 	c #A52A2A",
"V 	c #B8B8B8",
"C 	c #D11619",
"Z 	c #FF0000",
"A 	c #00AF14",
"S 	c #238E23",
"D 	c #9E9E9E",
"F 	c #B0B0B0",
"G 	c #303030",
"H 	c #8C8C8C",
"J 	c #9C9C9C",
"K 	c #6B6B6B",
"L 	c #999999",
"P 	c #9B7071",
"I 	c #787878",
"U 	c #BDBDBD",
"                                                                ",
"                                                                ",
"                      . X o O + + @ # $ %                       ",
"                  & + * + + = - - = + + * ; :                   ",
"              > , + < 1 + + + + + + + - 2 < + 3 4               ",
"            # * 5 + + + 6 2 7 1 5 8 5 9 + + + 6 7 0             ",
"          ; + + q 8 + + < + + + + - + + < + 7 8 + + w           ",
"        O 1 + e 7 r 2 8 r + 2 5 + 2 8 + t 8 y + + + * u         ",
"      i y 5 9 7 e e < 7 + 5 8 8 + t t + e < + e + 8 - < X       ",
"    p a e 7 8 a + r + + e + + + e + + + e + 7 8 + 1 8 e 1 s     ",
"    < q + + 5 + t 8 8 + + t 2 q + y t 8 7 + 8 8 8 + + + 5 ;     ",
"  d y + 8 5 e e y 2 8 + t 8 8 8 + 7 8 8 8 + - < + e + 8 y + .   ",
"  f e = 8 g + + + + + e + + < = e + + + + e e + < 8 + t g + u   ",
"h 2 + + t + + 8 8 g e e + + + + e e + + - = e 8 8 8 a + + + <   ",
"> + q r + e 1 8 8 8 e + 8 8 8 8 + + 8 8 8 8 e = 8 1 + j = 8 = . ",
"i + 1 8 + e + + = 1 e g 8 8 8 8 + + 8 8 8 8 + e + + + + = 8 + k ",
"u + - 8 + 5 9 + + + e + + + + - e e + + + + + e + q 8 1 + < + 0 ",
"l 5 + + + 8 8 8 8 + e < + + + + e e + + < 6 2 e 8 8 8 8 e + 8 i ",
"z 7 8 + e 5 8 8 8 + + 8 8 8 8 8 + + 8 8 8 8 8 e = 8 + + e q t x ",
"z + 8 5 e + + + 6 e + 8 8 8 8 8 c c 8 8 8 8 t + e + + 2 * + a v ",
"v + 7 + r 8 6 + + e e + + b 2 8 r n m m n y b b + b 2 q y + 1 M ",
"N 8 * e + 8 8 8 8 e + + + + B B B m m B m b b b b b b b b a 2 V ",
"  + 8 + e + 5 8 8 e * 8 8 C Z Z Z Z m m b A b S S b b b b b w   ",
"  % 2 + r - + + + e 7 8 g m m 8 n Z m 1 b A b b b A S b b b @   ",
"    D + + 8 8 6 + e + + + b b a B Z n 8 b A b 1 g b A S b b b   ",
"      F + r q 8 8 e * * y b b Z Z B n n b A S 9 8 9 A A b * G   ",
"          H + 5 6 j 7 8 8 8 1 n m Z Z n b A b 7 8 2 A A b 9 @   ",
"              J K + + 5 7 B C 8 8 Z Z n 7 A b 7 8 2 A A b q %   ",
"                    F d x Z Z m n Z Z n b A b b 7 b S A b L     ",
"                          P B Z Z Z n % @ A A A A A A b I       ",
"                            . P P P     # b b b b b b K         ",
"                                            U F J D V           "
};
