/* XPM */
static char *colorMaterial32[] = {
/* columns rows colors chars-per-pixel */
"32 32 175 2 ",
"   c #39003E",
".  c #76011F",
"X  c #7C001C",
"o  c #57002F",
"O  c #5C002C",
"+  c #470037",
"@  c #4B0035",
"#  c #41003A",
"$  c #540131",
"%  c #55173F",
"&  c #670027",
"*  c #6B0025",
"=  c #610029",
"-  c #65092D",
";  c #720021",
":  c #740E28",
">  c #6E142F",
",  c #1A004E",
"<  c #0B0156",
"1  c #120152",
"2  c #180350",
"3  c #120957",
"4  c #1C0E54",
"5  c #150C58",
"6  c #191057",
"7  c #1D1459",
"8  c #2C0045",
"9  c #250149",
"0  c #340041",
"q  c #30144E",
"w  c #381049",
"e  c #2D1753",
"r  c #251D5B",
"t  c #2E285E",
"y  c #3B315F",
"u  c #373261",
"i  c #393462",
"p  c #481041",
"a  c #5C3D57",
"s  c #533D5C",
"d  c #62314B",
"f  c #723243",
"g  c #7E3E48",
"h  c #694C5E",
"j  c #464267",
"k  c #4E4A6B",
"l  c #564C68",
"z  c #585570",
"x  c #5D5971",
"c  c #60556C",
"v  c #67596D",
"b  c #605E74",
"n  c #6C6A7B",
"m  c #7C6871",
"M  c #726F7E",
"N  c #7B727C",
"B  c #9C010C",
"V  c #850017",
"C  c #8C0114",
"Z  c #820119",
"A  c #8A0018",
"S  c #890E1E",
"D  c #930111",
"F  c #9B0911",
"G  c #9E1414",
"H  c #A60107",
"J  c #A30109",
"K  c #AD020A",
"L  c #B30502",
"P  c #B50B02",
"I  c #B80E02",
"U  c #AA150C",
"Y  c #B91401",
"T  c #B21A06",
"R  c #BB1A02",
"E  c #B72305",
"W  c #BF2A01",
"Q  c #B72C08",
"!  c #BD3104",
"~  c #B5340D",
"^  c #A73C1E",
"/  c #841424",
"(  c #8D2127",
")  c #8A3539",
"_  c #903636",
"`  c #933834",
"'  c #C12C02",
"]  c #C23302",
"[  c #C53B02",
"{  c #B34714",
"}  c #AF511C",
"|  c #994B35",
" . c #9E5633",
".. c #A74C22",
"X. c #A45128",
"o. c #C74301",
"O. c #C94503",
"+. c #CA4B02",
"@. c #C75003",
"#. c #CD5402",
"$. c #CD5B02",
"%. c #C1500A",
"&. c #CE510C",
"*. c #C35B0B",
"=. c #D15E03",
"-. c #D26303",
";. c #D46C02",
":. c #D86F05",
">. c #D66A08",
",. c #D67302",
"<. c #DA7606",
"1. c #DA7B03",
"2. c #DD7B08",
"3. c #83454B",
"4. c #8E504B",
"5. c #955442",
"6. c #8A5555",
"7. c #8C615E",
"8. c #91675C",
"9. c #815E64",
"0. c #8E6A67",
"q. c #8B696A",
"w. c #91766D",
"e. c #816D74",
"r. c #8E797B",
"t. c #927A74",
"y. c #DC8303",
"u. c #DD8901",
"i. c #E08607",
"p. c #E38D09",
"a. c #E19403",
"s. c #E49B04",
"d. c #E49108",
"f. c #E99C0B",
"g. c #E6A402",
"h. c #E7A902",
"j. c #E9AC04",
"k. c #ECA40B",
"l. c #EDAD0A",
"z. c #F2AF0F",
"x. c #EBB303",
"c. c #EDBB03",
"v. c #F2B00F",
"b. c #F4BD0D",
"n. c #F1C604",
"m. c #F3CB04",
"M. c #F3C109",
"N. c #F7CB09",
"B. c #F5D204",
"V. c #F8D706",
"C. c #F9D806",
"Z. c #FCDA0B",
"A. c #FCCB11",
"S. c #FED411",
"D. c #747280",
"F. c #787683",
"G. c #7F7E88",
"H. c #9A8D8C",
"J. c #8C8C92",
"K. c #939197",
"L. c #99979B",
"P. c #9D9C9E",
"I. c #A09997",
"U. c #9F9FA2",
"Y. c #A19EA0",
"T. c #A6A5A7",
"R. c #A9A6A6",
"E. c #A7A7A8",
"W. c #AAAAAA",
"Q. c #B0AFAF",
"!. c #AFAFB0",
"~. c #B8B7B7",
"^. c #BBBBBB",
"/. c #C0BFBF",
"(. c #C1C1C1",
/* pixels */
"(.(.(.(.(.(.(.(.(.(.(./././.^.Q.~././.(.(.(.(.(.(.(.(.(.(.(.(.(.",
"(.(.(.(.(.(.(.(.(./.~.E.H.t.7.4.6.q.r.K.E.~.(.(.(.(.(.(.(.(.(.(.",
"(.(.(.(.(.(.(.(.!.H.8.| ^ ~ Q E T U G ( g e.P.^.(.(.(.(.(.(.(.(.",
"(.(.(.(.(.(.^.I.8...%.@.$.$.*.+.! W R L H S f e.W.(.(.(.(.(.(.(.",
"(.(.(.(.(.Q.H. .*.,.u.u.u.u.1.;.=.+.! R P H C > h L././.(.(.(.(.",
"(.(.(./.Q.w.} ;.u.a.g.g.j.g.a.y.;.=.o.W Y P H C - a K./.(.(.(.(.",
"(.(./.~.t.} ;.a.j.x.c.c.c.x.h.s.u.;.$.o.E Y L B X $ s P.(.(.(.(.",
"(.(.^.H.X.;.a.j.c.n.m.m.n.n.c.h.a.u.=.#.] R L H C & # l E.(.(.(.",
"(./.E.5.*.u.j.c.m.m.V.m.B.N.c.h.s.y.;.#.] R P H D . @ q M ~./.(.",
"(./.t.{ ,.a.x.n.m.V.C.V.B.A.M.l.s.i.;.#.[ E P L B X O 8 y U./.(.",
"(.W.5.@.1.g.c.m.V.V.C.Z.S.B.M.l.g.i.:.#.[ E P L B Z O   4 n ^.(.",
"/.H.^ $.u.g.c.m.B.C.Z.Z.S.A.M.z.s.1.-.#.] R L L B X O   2 j W.(.",
"^.0.~ -.u.g.x.n.B.B.B.S.S.A.b.k.d.1.-.O.] R P L B X =   2 r K./.",
"Q.4.! =.y.s.x.c.M.N.A.A.A.A.v.f.i.:.#.[ E Y L L D X O   2 6 F./.",
"W.| W #.1.a.g.x.c.c.M.b.v.z.f.p.2.-.+.] R P L H D . o   2 5 n ^.",
"E.` E O.;.y.a.g.h.l.z.l.k.f.p.2.-.+.] ' Y L L H Z ; @ 8 < < z ~.",
"T._ R ! $.;.y.a.s.s.d.d.p.i.<.>.&.[ ' Y P L J D X = # 9 < < z ~.",
"R.) T W o.$.;.;.:.y.i.2.2.-.-.+.[ ' R I L L B V ; O   , < 1 x ^.",
"W.3.L Y ' o.#.$.-.;.>.-.&.&.O.] ' Y I L L B D ; = + 8 1 < 6 D./.",
"^.9.F P R W [ o.+.+.+.O.O.[ ' E Y I L L J D V ; $   , < < 7 J.(.",
"/.r./ J L Y R W ' ] ] ' W E R Y I L K J D V ; O   9 < < < i T.(.",
"(.Y.f D L P Y Y R R R R Y P P L L L B D V ; = #   1 < < 3 b ^.(.",
"(.~.m : D J K L P L I P L L L L J B A V ; O @ 0 2 < < < r J./.(.",
"(.(.U.d ; C B J K K L L L H B B D V X * O # 0 , < < < 6 x !.(.(.",
"(.(.~.N % ; X V D D B B D D C Z . ; = o   8 2 < < < < u L./.(.(.",
"(.(.(.!.v p $ & ; X X X X X ; ; = o +   9 2 < < < < r J.^./.(.(.",
"(.(.(.(.T.c w # @ o O O O O $ @     9 , 2 < < < < r n Q.(.(.(.(.",
"(.(.(.(.(.E.x e 9 8         8 8 9 2 < < < < < < t M Q.(.(.(.(.(.",
"(.(.(.(.(./.W.D.u 4 2 2 2 2 2 < < < < < < < 7 j J.^.(.(.(.(.(.(.",
"(.(.(.(.(.(.(.^.U.n u 4 5 < < < < < < < r j F.W.^.(.(.(.(.(.(.(.",
"(.(.(.(.(.(.(.(.(.~.U.G.x j i u i i k n J.W.^.(.(.(.(.(.(.(.(.(.",
"(.(.(.(.(.(.(.(.(./././.~.!.E.E.E.W.Q.~.(.(.(.(.(.(.(.(.(.(.(.(."
};
