/* XPM */
static char * image_name[]={
"32 32 114 2",
"  	c #C2C2C2",
". 	c #A6A6A6",
"X 	c #919191",
"o 	c #858585",
"O 	c #878787",
"+ 	c #949494",
"@ 	c #ABABAB",
"# 	c #8A8A8A",
"$ 	c #4D4D4D",
"% 	c #55562F",
"& 	c #1F1F1F",
"* 	c #212121",
"= 	c #525252",
"- 	c #B3B37E",
"; 	c #242424",
": 	c #030303",
"> 	c #050505",
", 	c #B0B0B0",
"< 	c #1A1A1A",
"1 	c #171717",
"2 	c #0A0A0A",
"3 	c #080808",
"4 	c #1C1C1C",
"5 	c #000000",
"6 	c #0F0F0F",
"7 	c #141414",
"8 	c #BDBDBD",
"9 	c #9C9C9C",
"0 	c #0D0D0D",
"q 	c #292929",
"w 	c #262626",
"e 	c #ADADAD",
"r 	c #A1A1A1",
"t 	c #B8860B",
"y 	c #B3B3B3",
"u 	c #BABABA",
"i 	c #121212",
"p 	c #545454",
"a 	c #A3A3A3",
"s 	c #2B2B2B",
"d 	c #F2DE0D",
"f 	c #FFFF00",
"g 	c #CDCD1D",
"h 	c #4F4F4F",
"j 	c #6B3939",
"k 	c #707070",
"l 	c #FF8C00",
"z 	c #DAAA00",
"x 	c #8B4513",
"c 	c #999999",
"v 	c #D2691E",
"b 	c #FF8700",
"n 	c #FF4500",
"m 	c #D11619",
"M 	c #F5280A",
"N 	c #A52A2A",
"B 	c #B8B8B8",
"V 	c #00562D",
"C 	c #FF0000",
"Z 	c #8E2323",
"A 	c #2E2E2E",
"S 	c #4A4A4A",
"D 	c #D52079",
"F 	c #A8A8A8",
"G 	c #5E5E5E",
"H 	c #8F0052",
"J 	c #FF1493",
"K 	c #5F0293",
"L 	c #A020F0",
"P 	c #9400D3",
"I 	c #8C12A1",
"U 	c #B02291",
"Y 	c #4E125D",
"T 	c #B5B5B5",
"R 	c #42089F",
"E 	c #7800FF",
"W 	c #6C00F2",
"Q 	c #7200EE",
"! 	c #7700E9",
"~ 	c #7C00E4",
"^ 	c #8C8C8C",
"/ 	c #222298",
"( 	c #4600FF",
") 	c #4200FF",
"_ 	c #4800FF",
"` 	c #4D00FF",
"' 	c #5200FF",
"] 	c #5700FF",
"[ 	c #5D00FF",
"{ 	c #6200FC",
"} 	c #6700F9",
"| 	c #6B00F6",
" .	c #7100F1",
"..	c #7500ED",
"X.	c #7A00E8",
"o.	c #7F00E3",
"O.	c #8C13E6",
"+.	c #232375",
"@.	c #3232CC",
"#.	c #0000FF",
"$.	c #4C00FF",
"%.	c #5100FF",
"&.	c #5600FF",
"*.	c #5E00FF",
"=.	c #5F00FA",
"-.	c #454545",
";.	c #828282",
":.	c #6E6E6E",
">.	c #5C5C5C",
",.	c #2F2F64",
"<.	c #27208B",
"1.	c #8F8F8F",
"2.	c #969696",
"3.	c #616161",
"                                                                ",
"                                                                ",
"                          . X o O + @                           ",
"                    # $ % % & * * & % % = X                     ",
"                - % ; : % % % % % % % * > ; % O                 ",
"            , % < % % % 1 2 1 3 4 5 4 6 % % % 7 = 8             ",
"          9 % % 0 5 % % q % % % % w % % q % 1 5 % % e           ",
"        r 3 % t 1 & 2 5 & % 2 4 % 2 5 % : 5 * % % % * y         ",
"      u q & i 1 t t q 1 % 4 5 5 % : : % t q % t % 5 ; %         ",
"      % % 0 5 0 % 7 w % t % % % t % % % t % 1 5 % 2 5 t p       ",
"    # 5 % % 1 % < 5 5 & & 5 5 5 % 2 5 5 > % 5 5 5 % % % 4 a     ",
"    s % d f d g g g t t t t t % % % % w 4 % 4 % % t % 5 & %     ",
"  + * f f f f f f f f f f f f f f f f f t % t % q 5 % : 3 % @   ",
"  h % f f f f f f f f f f f f f f f f f t j % 5 5 5 i % % q k   ",
"  % % d f f f f f f f f f f f f f f f f t : % ; 5 3 % g ; 5 %   ",
"y % 7 d d d d d d d d d f f f f f f f f t 5 % t % % % % ; 5 %   ",
"9 % % l l l l l z z z z d d d d d d d d x 6 % t % 0 5 3 % q % y ",
"c 4 < v b b b b l l l l l l l l l l l z x 0 3 t 5 5 5 5 t % 5 @ ",
"9 7 5 n n n n n n n n n n n n n b b l l x 2 5 t * 5 % % t 6 5 e ",
". % 5 m M M M M M M n n n n n n n n n n N 3 > t t % % i 7 % 1 B ",
"u V ; m C C C C C C M M M M M M M M M n Z 7 % t t 6 5 5 & t *   ",
"  A 2 m C C C C C C C C C C C C C C C C Z 6 > % % 5 5 4 t % S   ",
"  + 5 D D D D D C C C C C C C C C C C C Z 3 5 & t 4 % % q % F   ",
"    G H J D D D D D D D D D D D D C C C Z 2 & % t % ; 5 1 -     ",
"    B H J J J J J J J D D D D D D D D D j 7 % % t 5 5 6 -       ",
"    , K L P I I I I I U U U J J J J J J Y > 5 < t 3 % r         ",
"    T R E W Q ! ~ P P P P P P I I I I I Y 3 0 % t ^             ",
"    8 / ( ) _ ` ' ] [ { } |  ...X.o.O.P +.* - e                 ",
"      = / @.#.#.#.#.#.#.#.) _ $.%.&.*.=.+.-.                    ",
"        , c ;.:.>.,.<./ / #.#.#.#.#.#.#.+.1.                    ",
"                      8 @ 2.;.:.G ,.+.<.3.                      ",
"                                                                "
};
