/* XPM */
static char * image_name[]={
"32 32 110 2",
"  	c #C2C2C2",
". 	c #F5DEB3",
"X 	c #EEE8AA",
"o 	c #EFDF84",
"O 	c #EEDD82",
"+ 	c #D1C166",
"@ 	c #CED85A",
"# 	c #D7F46E",
"$ 	c #C4C4C4",
"% 	c #B5B5B5",
"& 	c #969696",
"* 	c #6A6A8D",
"= 	c #707070",
"- 	c #696969",
"; 	c #5E5E5E",
": 	c #575757",
"> 	c #595959",
", 	c #636363",
"< 	c #BDB76B",
"1 	c #D9D9D9",
"2 	c #FAF0E6",
"3 	c #D6D6D6",
"4 	c #ABABAB",
"5 	c #949494",
"6 	c #8A8A8A",
"7 	c #7A7A7A",
"8 	c #737373",
"9 	c #666666",
"0 	c #5C5C5C",
"q 	c #4A4A4A",
"w 	c #2F2F64",
"e 	c #545454",
"r 	c #CDCD1D",
"t 	c #E8E8E8",
"y 	c #FCFCFC",
"u 	c #F7F7F7",
"i 	c #F0F8FF",
"p 	c #CFCFCF",
"a 	c #A1A1A1",
"s 	c #9C9C9C",
"d 	c #8F8F8F",
"f 	c #878787",
"g 	c #B3B37E",
"h 	c #6B6B6B",
"j 	c #4D4D4D",
"k 	c #55562F",
"l 	c #F3E64B",
"z 	c #FAFAD2",
"x 	c #DBDBDB",
"c 	c #F2F2F2",
"v 	c #FAFAFA",
"b 	c #FFFFFF",
"n 	c #B0B0B0",
"m 	c #8C8C8C",
"M 	c #787878",
"N 	c #6E6E6E",
"B 	c #616161",
"V 	c #454545",
"C 	c #1A1A1A",
"Z 	c #363636",
"A 	c #D7EB31",
"S 	c #ADADAD",
"D 	c #B6E2CE",
"F 	c #EBEBEB",
"G 	c #DEDEDE",
"H 	c #999999",
"J 	c #4F4F4F",
"K 	c #171717",
"L 	c #262626",
"P 	c #7E88AB",
"I 	c #B7BBC0",
"U 	c #EDEDED",
"Y 	c #141414",
"T 	c #2E2E2E",
"R 	c #C9C9C9",
"E 	c #C7C7C7",
"W 	c #A3A3A3",
"Q 	c #A8A8A8",
"! 	c #383838",
"~ 	c #0F0F0F",
"^ 	c #BCBCC1",
"/ 	c #BABABA",
"( 	c #858585",
") 	c #A6A6A6",
"_ 	c #9B7071",
"` 	c #2B2B2B",
"' 	c #0D0D0D",
"] 	c #121212",
"[ 	c #292929",
"{ 	c #0A0A0A",
"} 	c #333333",
"| 	c #303030",
" .	c #757575",
"..	c #525252",
"X.	c #3B3B3B",
"o.	c #1C1C1C",
"O.	c #3D3D3D",
"+.	c #212121",
"@.	c #000001",
"#.	c #080808",
"$.	c #B8860B",
"%.	c #474747",
"&.	c #030303",
"*.	c #1F1F1F",
"=.	c #050505",
"-.	c #000000",
";.	c #404040",
":.	c #6B3939",
">.	c #242424",
",.	c #424242",
"                      . X o O + + @ # O X                       ",
"                $ . X % & * = - ; : > , < @ # .                 ",
"              1 2 3 4 5 6 * * 7 8 9 0 q w w e r O               ",
"            t y u i p a s d f g g 8 h , 0 j w w k l .           ",
"        . z x c v b v n & 5 m 6 g M N - B : : V C Z A .         ",
"        X S D t t F b G & H & 5 g g g 8 , ; > J k K L A         ",
"      o & P I 1 x G U b . H s H 5 g g g 8 h 0 J k k Y T l       ",
"    X s * d H % R G F E & W Q W s g g g g g , : q k ! ~ k #     ",
"  . # - * 6 m & ^ / ( - N H X S ) s g g g _ N B j k k ` ' r .   ",
"  o g B g 6 m s & q w - M 8 4 X 4 a g g g g N 9 : k k k ] k #   ",
"  @ e h 7 g d s a e Z e - - 7 X O 4 g g g < g , ; k k ! [ { r   ",
"X < w h 8 _ g 5 n a } } J 9 > H X O + < < < < h B k k ! | { k O ",
"O 9 q 9 N _ g g H X  .Y ! ..; ; O o + < < < < < 0 k k ! | ~ T @ ",
"# j j B - _ g g g 4 X k ] X.: ..8 o + < < < < < ; k k Z | o.K @ ",
"@ w j 0 B 8 g g g g O g ~ o.O.: q g # < < < < < k k k Z | +.{ r ",
"@ w j > B = g g g g g X , @.L V J e + @ < < < < k k k k } L #.$.",
"r T %.e 0 - g g < < < + # L &.[ %.w - @ < < < < k k k k | [ { $.",
"@ L ! q J ; - g < < < < # < @.' T q w < @ < < $.k k k | ` *.=.r ",
"@ T T k k : B - < < < < < # k -.K ! V J < < $.k k k k T ` Y ] l ",
"# k o.k k k > ; < < < < < @ + ' @.*.;.w 0 $.$.k k k k ` [ #.L @ ",
"O k ' Z k k k k , < < < < < @ k -.#.[ V w k $.k k k T ` L #.k O ",
"  r ~ [ Z k k k k k $.< < < < + ` -.~ } V q k k k k T L C =.r   ",
"  # k ' :.:.! k k k k $.$.$.$.< $.-.-.K X.%.k k k T T ` #.L @   ",
"  . r { +.| | :.k k k k k k k k $.k -.&.>.,.q k T [ L K =.r .   ",
"    # k { L T T } k k k k k k k k k ~ -.' | q ;.L L o.=.k #     ",
"      A >.#.>.` [ | k k k k k k k k k -.-.C X.J } K #.C A       ",
"      . A Y #.+.L T T ` k k k k k k k C -.=.L %.J { { A .       ",
"        X A *.#.K [ L [ [ [ [ | | [ ` T #.-.~ T w k r X         ",
"          . l k =.=.Y *.+.>.>.[ L >.+.L K -.-.{ k A .           ",
"              # $.T =.=.=.' ] C K ] { =.#.&.>.$.@               ",
"                . @ r k [ ~ =.=.=.=.~ L k r @ X                 ",
"                    . O @ l r $.$.r l @ O .                     "
};
