/* XPM */
static char *starglobe[] = {
/* width height num_colors chars_per_pixel */
"    32    32      256            2",
/* colors */
"`` c #000000",
"`. c #ffffff",
"`# c #6b424a",
"`a c #7b525a",
"`b c #3a2129",
"`c c #7b636b",
"`d c #63525a",
"`e c #312129",
"`f c #52424a",
"`g c #5a4a52",
"`h c #6b5a63",
"`i c #100810",
"`j c #191019",
"`k c #292129",
"`l c #312931",
"`m c #3a313a",
"`n c #423a42",
"`o c #4a424a",
"`p c #524a52",
"`q c #635a63",
"`r c #5a525a",
"`s c #6b636b",
"`t c #847b84",
"`u c #7b737b",
"`v c #191021",
"`w c #3a3142",
"`x c #080010",
"`y c #211929",
"`z c #292131",
"`A c #100819",
"`B c #000010",
"`C c #000008",
"`D c #080821",
"`E c #080819",
"`F c #101021",
"`G c #080810",
"`H c #21213a",
"`I c #191929",
"`J c #101019",
"`K c #212131",
"`L c #29293a",
"`M c #3a3a52",
"`N c #191921",
"`O c #3a3a4a",
"`P c #212129",
"`Q c #4a4a5a",
"`R c #292931",
"`S c #31313a",
"`T c #3a3a42",
"`U c #42424a",
"`V c #4a4a52",
"`W c #5a5a63",
"`X c #52525a",
"`Y c #63636b",
"`Z c #000821",
"`0 c #000819",
"`1 c #192131",
"`2 c #081019",
"`3 c #29313a",
"`4 c #192129",
"`5 c #212931",
"`6 c #101921",
"`7 c #000808",
"`8 c #081010",
".` c #192121",
".. c #212929",
".# c #000800",
".a c #081008",
".b c #080800",
".c c #101008",
".d c #f7f7d6",
".e c #a5a594",
".f c #52524a",
".g c #63635a",
".h c #5a5a52",
".i c #c5c5bd",
".j c #f7efce",
".k c #6b6352",
".l c #ada594",
".m c #9c8c6b",
".n c #ffefce",
".o c #7b7363",
".p c #847b6b",
".q c #dec59c",
".r c #b5a58c",
".s c #6b5a42",
".t c #9c8463",
".u c #9c7b5a",
".v c #5a4a3a",
".w c #c5a584",
".x c #312921",
".y c #cead8c",
".z c #736352",
".A c #524a42",
".B c #e6d6c5",
".C c #7b736b",
".D c #847363",
".E c #a59c94",
".F c #ad7342",
".G c #a57b5a",
".H c #523a29",
".I c #7b6352",
".J c #8c7363",
".K c #b59c8c",
".L c #73635a",
".M c #94847b",
".N c #8c6b5a",
".O c #9c8c84",
".P c #63524a",
".Q c #6b5a52",
".R c #a5948c",
".S c #a5847b",
".T c #73524a",
".U c #7b5a52",
".V c #080000",
".W c #100808",
".X c #291919",
".Y c #191010",
".Z c #523a3a",
".0 c #5a4242",
".1 c #292121",
".2 c #635252",
".3 c #6b5a5a",
".4 c #3a3131",
".5 c #7b6b6b",
".6 c #524a4a",
".7 c #635a5a",
".8 c #5a5252",
"#` c #6b6363",
"#. c #847b7b",
"## c #736b6b",
"#a c #7b7373",
"#b c #8c8484",
"#c c #c5c5c5",
"#d c #bdbdbd",
"#e c #b5b5b5",
"#f c #adadad",
"#g c #a5a5a5",
"#h c #9c9c9c",
"#i c #949494",
"#j c #8c8c8c",
"#k c #848484",
"#l c #7b7b7b",
"#m c #737373",
"#n c #6b6b6b",
"#o c #636363",
"#p c #5a5a5a",
"#q c #525252",
"#r c #4a4a4a",
"#s c #424242",
"#t c #3a3a3a",
"#u c #313131",
"#v c #292929",
"#w c #212121",
"#x c #191919",
"#y c #101010",
"#z c #080808",
"#A c #000000",
"#B c #000000",
"#C c #000000",
"#D c #000000",
"#E c #000000",
"#F c #000000",
"#G c #000000",
"#H c #000000",
"#I c #000000",
"#J c #000000",
"#K c #000000",
"#L c #000000",
"#M c #000000",
"#N c #000000",
"#O c #000000",
"#P c #000000",
"#Q c #000000",
"#R c #000000",
"#S c #000000",
"#T c #000000",
"#U c #000000",
"#V c #000000",
"#W c #000000",
"#X c #000000",
"#Y c #000000",
"#Z c #000000",
"#0 c #000000",
"#1 c #000000",
"#2 c #000000",
"#3 c #000000",
"#4 c #000000",
"#5 c #000000",
"#6 c #000000",
"#7 c #000000",
"#8 c #000000",
"a` c #000000",
"a. c #000000",
"a# c #000000",
"aa c #000000",
"ab c #000000",
"ac c #000000",
"ad c #000000",
"ae c #000000",
"af c #000000",
"ag c #000000",
"ah c #000000",
"ai c #000000",
"aj c #000000",
"ak c #000000",
"al c #000000",
"am c #000000",
"an c #000000",
"ao c #000000",
"ap c #000000",
"aq c #000000",
"ar c #000000",
"as c #000000",
"at c #000000",
"au c #000000",
"av c #000000",
"aw c #000000",
"ax c #000000",
"ay c #000000",
"az c #000000",
"aA c #000000",
"aB c #000000",
"aC c #000000",
"aD c #000000",
"aE c #000000",
"aF c #000000",
"aG c #000000",
"aH c #000000",
"aI c #000000",
"aJ c #000000",
"aK c #000000",
"aL c #000000",
"aM c #000000",
"aN c #000000",
"aO c #000000",
"aP c #000000",
"aQ c #000000",
"aR c #000000",
"aS c #000000",
"aT c #000000",
"aU c #000000",
"aV c #000000",
"aW c #000000",
"aX c #000000",
"aY c #000000",
"aZ c #000000",
"a0 c #000000",
"a1 c #000000",
"a2 c #000000",
"a3 c #000000",
"a4 c #000000",
"a5 c #000000",
"a6 c #000000",
"a7 c #000000",
"a8 c #000000",
/* pixels */
"#c#c#c#c#c#c#c#c#c#c#c#c#h#l#p#q#q#p#l#h#c#c#c#c#c#c#c#c#c#c#c#c",
"#c#c#c#c#c#c#c#c#c#f#o#v#z``#z#z````````#w#p#g#c#c#c#c#c#c#c#c#c",
"#c#c#c#c#c#c#c#d#q`G#z.b#z#z#z#z#z``````````#z#r#e#c#c#c#c#c#c#c",
"#c#c#c#c#c#c#j`P#y#y`G#z.c#z`C#z#z``````````#z``#y#k#c#c#c#c#c#c",
"#c#c#c#c#c#m`K`I#x#x`J`E`G#z#z#z``````#z````````````#o#c#c#c#c#c",
"#c#c#c#c#l`M`O`S`H`K`F`G`E`G#z#z#z````````````````````#o#c#c#c#c",
"#c#c#c#h#j#k#n.f`T`I`4`N`F#y`G#z`G#z``#z#z``````````````#k#c#c#c",
"#c#c#d.2.o.g.p.D.k`n`P`N`K`N`J`G#z#z``#z#z````````````````#e#c#c",
"#c#c#``e#y.1.X.x.s.J.4`K`L`5#w`J`G`G````````````#z#z``````#t#c#c",
"#c#e.A.``l.U.v`C.Y.H.t.l`R`L`3`P`J`G#z``````#z``````````````#g#c",
"#c#m`U..`T`m.7.6`x`C.z.m.I.5`p`K`N#y`C#z````````````````````#q#c",
"#c`T`H`P`4`J`P`o`R`D`B`i.M.q.w.7`L`N#z#z````````````````````#y#d",
"#g`N`F`F#y#y`F`I`T`I`D`k.L.S.n.d`s`N#y#z``````````````````````#i",
"#l`J`G#z#z#z`E`D`I`K`0`U.y.F.N.j.B`O`J#y#z````````````````````#n",
"`W#z#z#z#z#z#z#z`E`F`F`1`q.u.G.T.r`t`H#x.c````````````````````#q",
"#q`i#z`C``````.b#z`E`F`v`Z`V.K.Q`f.C`Q`6#y.b``````````````````#r",
"`X#z````````````#z`G`A`y`I`P`K`R`n.5#b`H`J#z``````````````````#r",
"#p````````````````#z.a`G`I`P`N`K`w.g.e`Y`K#y#z`````j#x````````#q",
"#m``````````````````#z.b#z`G`2`I#s.8.h#a`T#y#z````#y#y````````#n",
"#h````````````````````````.b#z#z#x`S.7.R#r`G`7````````.#``````#i",
"#c#x````````````````````````.V```G`N`n.O##`F#z#z#z`J`C``````#y#d",
"#c#p``````````````````#z`````````C#y`I`u.E`S`J#z`N`z`7``````#r#c",
"#c#f```````````````````````````````8`F`U.i#m`N`J`J`G````````#g#c",
"#c#c#s````````````````````````````#z`G`v.7#.`S.``J#z``````#u#c#c",
"#c#c#d````````````````````````````#z`G`P#u.P`#.1`J#z``````#e#c#c",
"#c#c#c#j``````````````````````````.b`G`P`l.0`a`b`j`G````#l#c#c#c",
"#c#c#c#c#o````````#z``````````````#z#z#x`m`g.Z`b`N#y.W#p#c#c#c#c",
"#c#c#c#c#c#o````````````````````````#z#y`m##.3.4`4`J#p#c#c#c#c#c",
"#c#c#c#c#c#c#l#z``````````````````#z#z`J#u`h`c#s`P#l#c#c#c#c#c#c",
"#c#c#c#c#c#c#c#e#s````````````````#z#z#x`T`d`o`r#f#c#c#c#c#c#c#c",
"#c#c#c#c#c#c#c#c#c#h#q#x````````#z#z#z#y#r#m#h#c#c#c#c#c#c#c#c#c",
"#c#c#c#c#c#c#c#c#c#c#c#d#i#m#p#q#q#p#m#i#d#c#c#c#c#c#c#c#c#c#c#c"
};
