/* XPM */
static char * image_name[]={
"32 32 187 2",
"  	c #C2C2C2",
". 	c #9E9E9E",
"X 	c #737373",
"o 	c #595959",
"O 	c #4D4D4D",
"+ 	c #454545",
"@ 	c #474747",
"# 	c #4F4F4F",
"$ 	c #707070",
"% 	c #9C9C9C",
"& 	c #7A7A7A",
"* 	c #55562F",
"= 	c #91535D",
"- 	c #BDB76B",
"; 	c #509F69",
": 	c #347766",
"> 	c #32814B",
", 	c #529584",
"< 	c #6A6A8D",
"1 	c #545454",
"2 	c #2F2F64",
"3 	c #4A4A4A",
"4 	c #757575",
"5 	c #8F8F8F",
"6 	c #96522D",
"7 	c #B8860B",
"8 	c #6B8E23",
"9 	c #00562D",
"0 	c #00938F",
"q 	c #384B66",
"w 	c #5E5E5E",
"e 	c #575757",
"r 	c #878787",
"t 	c #636363",
"y 	c #3D3D3D",
"u 	c #6B3939",
"i 	c #8E2323",
"p 	c #A52A2A",
"a 	c #DAAA00",
"s 	c #238E23",
"d 	c #32BFC1",
"f 	c #0D4A92",
"g 	c #232375",
"h 	c #4E125D",
"j 	c #73234E",
"k 	c #5C5C5C",
"l 	c #525252",
"z 	c #2F4F4F",
"x 	c #1C1C1C",
"c 	c #D11619",
"v 	c #D2691E",
"b 	c #F2DE0D",
"n 	c #ADFF2F",
"m 	c #00AF14",
"M 	c #00D2A8",
"N 	c #00BFFF",
"B 	c #222298",
"V 	c #292929",
"C 	c #383838",
"Z 	c #171717",
"A 	c #0F0F0F",
"S 	c #0D0D0D",
"D 	c #FF0000",
"F 	c #F5280A",
"G 	c #00D2D2",
"H 	c #262626",
"J 	c #1A1A1A",
"K 	c #141414",
"L 	c #363636",
"P 	c #7D7D7D",
"I 	c #424242",
"U 	c #3B3B3B",
"Y 	c #0A0A0A",
"T 	c #050505",
"R 	c #080808",
"E 	c #FF8C00",
"W 	c #FFFF00",
"Q 	c #32D838",
"! 	c #1E90FF",
"~ 	c #27208B",
"^ 	c #8F0052",
"/ 	c #B5B5B5",
"( 	c #2B2B2B",
") 	c #121212",
"_ 	c #030303",
"` 	c #FF4500",
"' 	c #0071E1",
"] 	c #333333",
"[ 	c #ADADAD",
"{ 	c #242424",
"} 	c #000001",
"| 	c #7CFC00",
" .	c #0041C7",
"..	c #000000",
"X.	c #212121",
"o.	c #B0B0B0",
"O.	c #404040",
"+.	c #A6A6A6",
"@.	c #696969",
"#.	c #4F0097",
"$.	c #D7EB31",
"%.	c #B3B3B3",
"&.	c #2E2E2E",
"*.	c #8B4513",
"=.	c #A8A8A8",
"-.	c #858585",
";.	c #325185",
":.	c #304D81",
">.	c #949494",
",.	c #355490",
"<.	c #36538C",
"1.	c #37548D",
"2.	c #38558E",
"3.	c #3A558C",
"4.	c #3D568A",
"5.	c #4955A5",
"6.	c #666666",
"7.	c #39558F",
"8.	c #2756A9",
"9.	c #1B4AA1",
"0.	c #314C83",
"q.	c #335494",
"w.	c #39568E",
"e.	c #3C5689",
"r.	c #3C5589",
"t.	c #34518E",
"y.	c #2E4D8A",
"u.	c #8A8A8A",
"i.	c #5470AA",
"p.	c #4169E1",
"a.	c #3473D4",
"s.	c #2B75E6",
"d.	c #708090",
"f.	c #3A7BD0",
"g.	c #3B7ACE",
"h.	c #7C98D3",
"j.	c #999999",
"k.	c #5773B8",
"l.	c #3578E5",
"z.	c #778899",
"x.	c #2C7AFE",
"c.	c #BDBDBD",
"v.	c #729FFF",
"b.	c #919191",
"n.	c #2C6EEC",
"m.	c #8C8C8C",
"M.	c #2B75F9",
"N.	c #3766CC",
"B.	c #3566CE",
"V.	c #3264D2",
"C.	c #2A6EFF",
"Z.	c #2B6FFF",
"A.	c #2F79FF",
"S.	c #307CFF",
"D.	c #2866EE",
"F.	c #3F63B7",
"G.	c #3079FF",
"H.	c #B8B8B8",
"J.	c #317CFF",
"K.	c #335EC6",
"L.	c #315DC9",
"P.	c #317BFF",
"I.	c #2F5CD2",
"U.	c #2C70FF",
"Y.	c #305FCE",
"T.	c #2A69FE",
"R.	c #3D5FB5",
"E.	c #3075FF",
"W.	c #2A67FF",
"Q.	c #2A68FF",
"!.	c #2A66FF",
"~.	c #2C6BFF",
"^.	c #255CEC",
"/.	c #3B5AB5",
"(.	c #3155C1",
").	c #3276FF",
"_.	c #2E6EFF",
"`.	c #2861FF",
"'.	c #2961FF",
"].	c #275EFF",
"[.	c #2C69FF",
"{.	c #3B65DA",
"}.	c #2E55D6",
"|.	c #285DFF",
" X	c #2F56D5",
".X	c #375EDA",
"XX	c #3655BD",
"                                                                ",
"                                                                ",
"                                                                ",
"                                                                ",
"                                                                ",
"                                                                ",
"                                                                ",
"                      . X o O + @ # o $ %                       ",
"                  & O * = - ; : > , < 1 2 3 4                   ",
"              5 + 1 = 6 6 7 8 9 > 0 q 2 2 w e @ r               ",
"            t y # u i p 6 a 8 s 0 d f g 2 h j w @ k             ",
"          l 3 z x x i c v b n m M N B g h j u V + O 3           ",
"        e O C Z A S u D F b n m G N B g h j H J K L # O         ",
"      P I U K A Y T R i D E W Q G ! ~ h ^ u K Y A K U 3 $       ",
"    / ( @ Z ) Y R _ _ S D ` W Q G ' g ^ j ) _ T Y ) Z @ ] [     ",
"    l 3 { ) S R T _ } } u D b | G  .h ^ Z ....T R S ) X.O @     ",
"  o.] O.K A R T _ _ _ } } p E | G B ^ X....._ _ T R A K y C +.  ",
"  @.I H ) Y R _ _ _ _ } } Y F n N #.u ...._ _ _ _ R Y ) { @ w   ",
"  O.+ J A R T _ _ _ } } } } i $.! h _ ..} } _ _ _ T R A Z + C   ",
"%.V &.R _ ....................*.e T .................._ R ( &.=.",
"-.q ;.2 2 2 2 g g g g g g 2 g 2 q g g g g g g g g g g g g :.q & ",
">.q ,.<.1.1.2.3.4.4.4.5.6.7.8.9.0.t 5.4.4.4.q.w.5.e.e.r.5.t.y.u.",
"  i.p.a.s.s.! <         d.f.! ! g.d.        i.h.<       j.h.k.  ",
"  p.! l.p.p.h.z.      i.! ! i.i.! ! i.      z.! x.c.    k.v.k.  ",
"  k.! 5             j.! ! b.    b.! ! %     c.n.! m.  %.M.! %   ",
"  k.! k.i.i.i.+.    i.! N.        B.! <       i.! i.  z.! V.    ",
"  k.C.Z.A.S.! b.    i.! i.        i.! i.      j.A.D.  i.! <     ",
"  F.G.i.+.+.+.H.    < J.K.        L.P.<         I.U.< Y.T.=.    ",
"  R.E.z.            % W.W.u.    z.Q.!..         < ~.^.Q./.      ",
"  (.).<               i._.`.5.5.'._.i.          +.].'.[.<       ",
"  5.{.<                 < }.|.|. X<               5..XXX/       ",
"                            [ [                                 "
};
