/* XPM */
static char *render_galaxy_flat_result_xpm[] = {
/* width height num_colors chars_per_pixel */
"    32    32      256            2",
/* colors */
"`` c #bcc27c",
"`. c #dce254",
"`# c #bcbe94",
"`a c #ccd25c",
"`b c #ecf244",
"`c c #c4ca6c",
"`d c #ecfa54",
"`e c #d4da54",
"`f c #bcbeb4",
"`g c #c4c674",
"`h c #e4ea44",
"`i c #f4fa3c",
"`j c #c4c27c",
"`k c #d4d65c",
"`l c #dcde54",
"`m c #f4fa44",
"`n c #bcbea4",
"`o c #ccd26c",
"`p c #ccce64",
"`q c #c4c2bc",
"`r c #ecee44",
"`s c #bcbe8c",
"`t c #e4e64c",
"`u c #ccd65c",
"`v c #f4fe54",
"`w c #d4de54",
"`x c #e4ee44",
"`y c #dce64c",
"`z c #bcc294",
"`A c #ecf63c",
"`B c #c4ce6c",
"`C c #bcc2bc",
"`D c #c4c684",
"`E c #f4fe34",
"`F c #f4fe44",
"`G c #f4fe64",
"`H c #bcc284",
"`I c #bcbe9c",
"`J c #ccd264",
"`K c #c4ca74",
"`L c #d4da5c",
"`M c #bcbebc",
"`N c #c4c67c",
"`O c #e4ea4c",
"`P c #c4c284",
"`Q c #dcde5c",
"`R c #bcbeac",
"`S c #ccce6c",
"`T c #c4c2c4",
"`U c #bcc28c",
"`V c #ccd664",
"`W c #f4fe5c",
"`X c #d4de5c",
"`Y c #e4ee4c",
"`Z c #dce654",
"`0 c #ecf644",
"`1 c #f4fe3c",
"`2 c #f4fe4c",
"`3 c #000000",
"`4 c #000000",
"`5 c #000000",
"`6 c #000000",
"`7 c #000000",
"`8 c #000000",
".` c #000000",
".. c #000000",
".# c #000000",
".a c #000000",
".b c #000000",
".c c #000000",
".d c #000000",
".e c #000000",
".f c #000000",
".g c #000000",
".h c #000000",
".i c #000000",
".j c #000000",
".k c #000000",
".l c #000000",
".m c #000000",
".n c #000000",
".o c #000000",
".p c #000000",
".q c #000000",
".r c #000000",
".s c #000000",
".t c #000000",
".u c #000000",
".v c #000000",
".w c #000000",
".x c #000000",
".y c #000000",
".z c #000000",
".A c #000000",
".B c #000000",
".C c #000000",
".D c #000000",
".E c #000000",
".F c #000000",
".G c #000000",
".H c #000000",
".I c #000000",
".J c #000000",
".K c #000000",
".L c #000000",
".M c #000000",
".N c #000000",
".O c #000000",
".P c #000000",
".Q c #000000",
".R c #000000",
".S c #000000",
".T c #000000",
".U c #000000",
".V c #000000",
".W c #000000",
".X c #000000",
".Y c #000000",
".Z c #000000",
".0 c #000000",
".1 c #000000",
".2 c #000000",
".3 c #000000",
".4 c #000000",
".5 c #000000",
".6 c #000000",
".7 c #000000",
".8 c #000000",
"#` c #000000",
"#. c #000000",
"## c #000000",
"#a c #000000",
"#b c #000000",
"#c c #000000",
"#d c #000000",
"#e c #000000",
"#f c #000000",
"#g c #000000",
"#h c #000000",
"#i c #000000",
"#j c #000000",
"#k c #000000",
"#l c #000000",
"#m c #000000",
"#n c #000000",
"#o c #000000",
"#p c #000000",
"#q c #000000",
"#r c #000000",
"#s c #000000",
"#t c #000000",
"#u c #000000",
"#v c #000000",
"#w c #000000",
"#x c #000000",
"#y c #000000",
"#z c #000000",
"#A c #000000",
"#B c #000000",
"#C c #000000",
"#D c #000000",
"#E c #000000",
"#F c #000000",
"#G c #000000",
"#H c #000000",
"#I c #000000",
"#J c #000000",
"#K c #000000",
"#L c #000000",
"#M c #000000",
"#N c #000000",
"#O c #000000",
"#P c #000000",
"#Q c #000000",
"#R c #000000",
"#S c #000000",
"#T c #000000",
"#U c #000000",
"#V c #000000",
"#W c #000000",
"#X c #000000",
"#Y c #000000",
"#Z c #000000",
"#0 c #000000",
"#1 c #000000",
"#2 c #000000",
"#3 c #000000",
"#4 c #000000",
"#5 c #000000",
"#6 c #000000",
"#7 c #000000",
"#8 c #000000",
"a` c #000000",
"a. c #000000",
"a# c #000000",
"aa c #000000",
"ab c #000000",
"ac c #000000",
"ad c #000000",
"ae c #000000",
"af c #000000",
"ag c #000000",
"ah c #000000",
"ai c #000000",
"aj c #000000",
"ak c #000000",
"al c #000000",
"am c #000000",
"an c #000000",
"ao c #000000",
"ap c #000000",
"aq c #000000",
"ar c #000000",
"as c #000000",
"at c #000000",
"au c #000000",
"av c #000000",
"aw c #000000",
"ax c #000000",
"ay c #000000",
"az c #000000",
"aA c #000000",
"aB c #000000",
"aC c #000000",
"aD c #000000",
"aE c #000000",
"aF c #000000",
"aG c #000000",
"aH c #000000",
"aI c #000000",
"aJ c #000000",
"aK c #000000",
"aL c #000000",
"aM c #000000",
"aN c #000000",
"aO c #000000",
"aP c #000000",
"aQ c #000000",
"aR c #000000",
"aS c #000000",
"aT c #000000",
"aU c #000000",
"aV c #000000",
"aW c #000000",
"aX c #000000",
"aY c #000000",
"aZ c #000000",
"a0 c #000000",
"a1 c #000000",
"a2 c #000000",
"a3 c #000000",
"a4 c #000000",
"a5 c #000000",
"a6 c #000000",
"a7 c #000000",
"a8 c #000000",
/* pixels */
"`T`T`C`T`q`C`T`C`q`M`q`M`f`I`U`n`f`q`f`C`q`f`q`C`q`M`T`q`C`T`T`C",
"`C`T`T`C`T`M`q`M`q`M`f`q`R`U`k`y`k`I`M`q`f`f`R`q`M`q`M`q`T`C`T`T",
"`T`M`T`M`q`M`q`M`q`M`q`f`f`n`s`i`F`J`R`M`q`R`f`n`#`R`M`C`T`M`T`M",
"`T`C`q`M`q`M`R`n`I`I`n`n`n`q`M`#`O`1`p`#`R`f`q`c`w`n`T`M`q`T`M`T",
"`T`T`M`T`M`I`g`y`O`i`O`O`k`s`U`n`n`K`w`O`H`q`R`t`i`I`q`f`M`T`T`C",
"`C`T`q`T`f`I`K`i`Y`t`F`1`O`.`F`x`U`q`s`b`y`#`f`k`1`c`f`q`M`M`q`T",
"`T`M`C`q`M`R`n`#`I`n`H`U`I`N`O`i`1`k`n`U`1`O`R`H`b`J`f`f`q`M`T`M",
"`T`C`T`f`f`q`M`q`f`n`N`L`p```N`P`u`1`k`n`J`F`k`f`j`H`q`R`f`q`M`q",
"`C`q`f`q`f`q`#`c`J`S`.`x`1`1`O`u`P`U`b`l`s`m`F`I`g`Y`H`f`q`R`n`M",
"`q`f`q`M`n`p`t`l`c```s`z`S`k`J`L`b`Z`S`Z`K`g`b`H`c`2`k`M`n`s`#`q",
"`M`f`q`s`l`i`u`I`R`R`I`J`x`m`.`X`b`m`c`t`1`s`J`S`N`b```q`g`e`#`f",
"`q`q```2`F`K`f`I`J`J`s`K`k`Y`x`x`r`w`i`.`Y`J`S`K`s`a`s`R`.`A`U`q",
"`C`n`1`v`p`q`R`J`l```P`g`k`A`2`m`v`v`v`y`Q`.`A`.`#`O`K`R`O`1`#`q",
"`R`e`1`K`q`#`J`p`I`c`O`L`0`v`G`G`G`G`G`2`E`.`b`.`H`i```f`y`l`R`M",
"`n`c`N`q`R`b`1`I`U`m`w`y`2`G`G`G`G`G`G`G`1`L`J`H`x`0`R`z`.```q`f",
"`q`f`f`f`H`i`p`#`r`L`N`O`F`G`G`G`G`G`G`W`Q`J`k`U`1`p`I`x`t`n`f`q",
"`M`q`f`P`r`X`n`L`F`k`y`t`F`F`W`G`G`G`G`G`r`L`K`J`k`n`l`2`K`M`f`R",
"`C`f`q`a`2`g`R`1`b`L`F`m`1`2`G`G`G`G`G`G`2`l`S`.`#`I`A`.`R`f`I`n",
"`q`f`R`t`F`z`#`y`K`.`1`Y`E`W`G`G`W`W`G`W`r`O`Y`H`H`O`w`n`q`H`k`s",
"`q`M`N`F`O`n`z`S`I`k`.`y`1`F`v`G`W`2`2`1`r`S`J`e`F`m`#`q`g`1`l`n",
"`M`q`H`h`N`M`K`t`H`e`Z`k`O`t`1`m`m`E`b`t`k`X`F`1`J`I`I`e`1`i`g`C",
"`q`M`n`N`I`M`l`1`H`L`x`H`Q`p`.`l`p`O`S`N`J`Y`e`P`f`n`L`v`F`U`R`q",
"`C`q`s```n`q`g`x`P```.`#`O`A`z`g`L`t`j```K`g`D`U`t`y`J`e`P`M`q`f",
"`T`M`#`j`n`f`H`0`K`I`w`g`N`.`c`U`S`l`J`.`1`1`i`w`b`J`n`f`q`f`M`q",
"`q`C`f`R`f`q```i`N`R`J`y`#`R`p`k`#`f`U`g`p`J`K`s`R`q`C`q`R`q`f`q",
"`T`q`T`q`M`C`#`b`J`f`n`p`O`H`f`p`Y`e`k`g`H`I`I`#`U`g```I`n`M`q`M",
"`C`T`M`q`M`q`f`J`i`K`q`#`F`i`n`n`J`1`1`m`F`b`X`b`1`F`m`#`M`q`M`T",
"`T`M`T`C`q`f`T`s`1`O`R`q`p`F`b`I`T`I`U`N`y`.`p`J`J`p`u`#`T`M`q`T",
"`T`T`C`T`M`q`M`R`N`g`I`M`f`P`.`J`g`I`C`f`R`R`n`R`q`q`f`f`q`M`q`M",
"`C`T`T`M`T`M`q`M`q`f`I`R`C`T`n`c`1`L`I`R`q`M`q`f`M`M`q`q`M`q`C`T",
"`T`M`T`T`q`q`M`q`M`q`R`n`q`f`q`n`u`p`H`#`f`q`f`q`M`q`M`q`M`T`T`T",
"`T`C`T`M`T`C`T`C`T`M`q`f`M`q`M`M`f`n`R`I`f`q`M`T`C`q`M`T`T`M`T`M"
};
