/* XPM */
static char * image_name[]={
"32 32 108 2",
"  	c #C2C2C2",
". 	c #A6A6A6",
"X 	c #919191",
"o 	c #858585",
"O 	c #878787",
"+ 	c #949494",
"@ 	c #ABABAB",
"# 	c #8A8A8A",
"$ 	c #4F4F4F",
"% 	c #55562F",
"& 	c #242424",
"* 	c #262626",
"= 	c #525252",
"- 	c #B3B37E",
"; 	c #292929",
": 	c #080808",
"> 	c #0A0A0A",
", 	c #B0B0B0",
"< 	c #1C1C1C",
"1 	c #1A1A1A",
"2 	c #171717",
"3 	c #000000",
"4 	c #0F0F0F",
"5 	c #545454",
"6 	c #BDBDBD",
"7 	c #9E9E9E",
"8 	c #0D0D0D",
"9 	c #ADADAD",
"0 	c #A1A1A1",
"q 	c #B8860B",
"w 	c #1F1F1F",
"e 	c #030303",
"r 	c #212121",
"t 	c #B3B3B3",
"y 	c #BABABA",
"u 	c #2B2B2B",
"i 	c #575757",
"p 	c #8C8C8C",
"a 	c #BDB76B",
"s 	c #A3A3A3",
"d 	c #333333",
"f 	c #999999",
"g 	c #FAFAFA",
"h 	c #6A6A8D",
"j 	c #050505",
"k 	c #363636",
"l 	c #B8B8B8",
"z 	c #474747",
"x 	c #707070",
"c 	c #303030",
"v 	c #969696",
"b 	c #5C5C5C",
"n 	c #FFFFFF",
"m 	c #E0E0E0",
"M 	c #636363",
"N 	c #2F2F64",
"B 	c #000001",
"V 	c #7A7A7A",
"C 	c #BDBDDE",
"Z 	c #616161",
"A 	c #D1D1D1",
"S 	c #121212",
"D 	c #9C9C9C",
"F 	c #6B6B6B",
"G 	c #828282",
"H 	c #787878",
"J 	c #595959",
"K 	c #CCCCCC",
"L 	c #F0F0F0",
"P 	c #CDCD1D",
"I 	c #D4D4D4",
"U 	c #E8E8E8",
"Y 	c #737373",
"T 	c #404040",
"R 	c #3B3B3B",
"E 	c #383838",
"W 	c #666666",
"Q 	c #A8A8A8",
"! 	c #7F7F7F",
"~ 	c #3D3D3D",
"^ 	c #EBEBEB",
"/ 	c #141414",
"( 	c #DBDBDB",
") 	c #4A4A4A",
"_ 	c #CFCFCF",
"` 	c #DCDCDC",
"' 	c #C7C7C7",
"] 	c #7E7E7E",
"[ 	c #4D4D4D",
"{ 	c #E3E3E3",
"} 	c #7D7D7D",
"| 	c #C4C4C4",
" .	c #6E6E6E",
"..	c #696969",
"X.	c #C9C9C9",
"o.	c #5E5E5E",
"O.	c #D6D6D6",
"+.	c #F5F5F5",
"@.	c #424242",
"#.	c #EDEDED",
"$.	c #757575",
"%.	c #F7F7F7",
"&.	c #F2F2F2",
"*.	c #8F8F8F",
"=.	c #B5B5B5",
"-.	c #2E2E2E",
";.	c #D9D9D9",
":.	c #454545",
"                                                                ",
"                                                                ",
"                          . X o O + @                           ",
"                    # $ % % & * * & % % = X                     ",
"                - % ; : % % % % % % % * > ; % O                 ",
"            , % < % % % 1 > 2 : < 3 < 4 % % % 1 5 6             ",
"          7 % % 8 3 % % ; % % % % * % % ; % 2 3 % % 9           ",
"        0 > % q 2 w > 3 w % > < % > 3 % e 3 r % % % r t         ",
"      y u < 4 2 q q ; 2 % < 3 3 % e e % q ; % q % 3 * %         ",
"      % q w 3 8 % w % % q % % % q % % % q % 2 3 % : 3 q i       ",
"    p > % 3 * a < 3 3 % % 3 3 3 % & 3 3 e % 3 3 3 % % % < s     ",
"    d e > f g h j k l y * 3 z + x : 3 c d % < % % q % 3 r %     ",
"  v 3 3 b n m 3 3 n n M 3 b n n N B V n C % q % ; 3 % e j % @   ",
"  = & < Z n A 3 3 n n S 3 D n   3 3 n n . % % 3 3 3 S % % % x   ",
"  % % n t < $ 6 . F G H J o K @ S e L n D e % & 3 : % P & 3 %   ",
"t % ; n I 3 3 n n 3 3 U n Y 3 T g U R E 8 3 % q % % % % & 3 %   ",
"D % & u W Q p ! v b ~ @ ^ H 3 k n n 3 3 3 * % q % 8 3 : % ; % t ",
"D % S 3 / n n 3 3 n n k 3 o ( D ) W p V x R j q 3 3 3 3 q % 3 @ ",
"D S j . + O f ) d _ g T 3 o n ` 3 3 n n ' 4 3 q r 3 % % q 8 e , ",
". ; : n n 3 3 n n 8 > @ ' ] M ] x i t K J 3 : q q % % S / % 1 l ",
"y % & H D [ E { n S 3 K n } 3 r n n 3 3 3 / % q q 4 3 3 w q r   ",
"  d > 3 3 n n 3 : | |  .F G M ..X.m 1 3 * R j % % 3 3 < q % )   ",
"  + j = o.I L 3 3 g n d 3 V n A 3 3 L { 0 w 3 w q < % % * % Q   ",
"    b n n 3 3 { _ b W G W ] K , B 3 n n # 3 w % q % & 3 1 -     ",
"    9 D O.8 3 n n e 3   n # 3 T +._ @.5 : > % % q 3 3 / -       ",
"    s 3 3 n #.T $ # $.#   o : R n n 3 3 3 & 3 2 q > % 0         ",
"    @ * w %.n 3 3 &.n $ 3 Y n 9 k J + } x u 8 % q *.            ",
"    =.I n -.-., D G . Y < Y n ;.3 3 n n *.w - ,                 ",
"      x t 4 3 { n :.3 , n 0 ; W @ o + @ u $                     ",
"        , f G Y Y $ & b   V 3 ; n n 3 3 3 f                     ",
"                      6 Q + ! F x Y -.< ..                      ",
"                                                                "
};
